<svg width="207" height="42" viewBox="0 0 207 42" fill="none" xmlns="http://www.w3.org/2000/svg">
<path d="M24.5811 -3.05176e-05C36.1744 6.29092e-06 45.5722 9.34268 45.5723 20.8672C45.5723 32.3917 36.1745 41.7343 24.5811 41.7343C12.9876 41.7343 3.58984 32.3917 3.58984 20.8672C3.58995 9.34266 12.9876 -3.05176e-05 24.5811 -3.05176e-05ZM24.5703 2.47165C14.3469 2.47189 6.0625 10.7089 6.0625 20.8672C6.06271 31.0253 14.347 39.2614 24.5703 39.2617C34.7938 39.2617 43.0789 31.0254 43.0791 20.8672C43.0791 10.7087 34.7939 2.47165 24.5703 2.47165Z" fill="white"/>
<path d="M30.3777 9.4478C30.3777 9.4478 21.8463 4.52871 12.7608 12.1751C7.17562 17.6797 8.61599 25.0358 8.61599 25.0358L48.76 12.1951L16.2711 17.6146C16.2711 17.6146 16.3366 7.84647 30.3777 9.4478Z" fill="white"/>
<path d="M30.0585 9.27274C30.0585 9.27274 22.2523 4.769 13.9375 11.7648C8.82565 16.804 10.1452 23.5346 10.1452 23.5346L42.1607 13.5113L17.1506 16.744C17.1506 16.744 17.211 7.80652 30.0585 9.27274Z" fill="white"/>
<path d="M15.7081 31.5864C15.7081 31.5864 26.4152 39.3579 35.9992 31.2161C41.5844 25.7115 40.1441 18.3554 40.1441 18.3554L0 31.1911L32.4889 25.7716C32.4889 25.7716 31.5874 34.2937 15.7081 31.5864Z" fill="white"/>
<path d="M17.0337 32.0816C17.0337 32.0816 26.1292 38.3619 34.2124 31.7063C38.9213 27.2126 37.6723 21.2376 37.6723 21.2376L5.86328 30.0149L31.2209 27.2977C31.2209 27.2977 30.4906 34.2234 17.0337 32.0816Z" fill="white"/>
<path d="M61.4336 29.8429C65.4878 31.4943 72.7098 33.1506 75.5805 25.7845C76.9151 19.6094 70.5492 15.3558 70.5492 15.3558L67.8951 19.144C67.8951 19.144 69.9852 20.42 70.6046 22.1665C71.7328 24.5335 71.2543 27.9513 66.6663 29.8029C64.9187 30.5885 63.1761 29.968 61.5796 29.5376" fill="white"/>
<path d="M75.7571 24.1081C75.7571 24.1081 76.4118 32.5901 64.3047 35.5376C54.5696 37.9046 54.9473 37.8045 54.9473 37.8045L61.1671 28.837C61.1671 28.837 64.4557 31.0889 67.7595 31.0689C71.018 31.0489 74.7196 29.6127 75.7571 24.1081Z" fill="white"/>
<path d="M72.4268 9.41572C68.3676 7.76935 61.1506 6.11297 58.28 13.4791C56.9453 19.6542 62.9335 24.6684 62.9335 24.6684L65.9653 20.1146C65.9653 20.1146 64.2983 18.9436 63.4824 17.4974C62.1125 15.0754 62.5104 7.96451 72.3664 9.47577" fill="white"/>
<path d="M58.053 15.0055C58.053 15.0055 57.4033 6.51841 69.5054 3.57596C79.2405 1.20399 78.8679 1.30407 78.8679 1.30407L72.6481 10.2765C72.6481 10.2765 69.3544 8.01966 66.0506 8.04468C62.7921 8.0647 59.0905 9.49589 58.053 15.0055Z" fill="white"/>
<path fill-rule="evenodd" clip-rule="evenodd" d="M78.6505 14.0096V10.7469L83.3291 9.37072V14.0096H87.2725V17.4925H83.3291V25.2289C83.3291 27.3707 84.004 28.2664 85.4444 28.2664C86.1192 28.2664 86.502 28.2014 86.9855 28.1063L87.0459 31.7193C86.4063 31.9795 85.253 32.1346 83.8731 32.1346C78.7461 32.1346 78.6505 27.691 78.6505 25.7093V17.4925H76.3086V14.0096H78.6505ZM90.3195 15.1605C91.508 14.4549 93.719 13.6543 96.509 13.6543C102.054 13.6543 103.56 17.1722 103.56 21.0755V27.5959C103.56 29.1622 103.625 30.7285 103.817 31.8144H99.556L99.2639 29.9628H99.1682C98.1408 31.369 96.4134 32.1697 94.424 32.1697C91.1203 32.1697 89.0705 29.7076 89.0705 26.8302C89.0705 22.2564 93.1398 20.1147 98.8157 20.1147C98.8157 18.3582 98.2063 17.0121 95.6076 17.0121C93.9758 17.0121 92.3692 17.5225 91.2159 18.2281L90.3195 15.1605ZM98.9466 23.1522C96.3831 23.1522 93.719 23.7627 93.719 26.3498C93.719 28.0463 94.7766 28.7819 95.9651 28.7819C97.0882 28.7819 98.9466 27.9812 98.9466 25.7143V23.1522ZM112.061 17.1072C112.892 14.8052 114.816 13.6243 116.483 13.6243C116.931 13.6243 117.223 13.6543 117.54 13.7193V18.2281C117.188 18.163 116.805 18.128 116.322 18.128C114.176 18.128 112.539 19.5692 112.539 22.6067V31.8144H107.795V19.5692C107.795 17.3624 107.73 15.6059 107.664 14.0046H111.739L111.93 17.1072H112.061ZM129.441 21.3257L135.983 31.8144H130.338L126.168 24.2031L124.919 25.8995V31.8144H120.174V6.108H124.919V21.776H125.014C125.402 20.9754 125.785 20.2398 126.203 19.5692L129.758 14.0046H135.278L129.441 21.3257Z" fill="white"/>
<path fill-rule="evenodd" clip-rule="evenodd" d="M139.141 9.43237H154.718V11.2589H141.291V19.3857H153.862V21.2122H141.291V30.0946H154.874V31.9211H139.141V9.43237ZM171.836 31.9211H170.003V28.8385H169.942C169.086 30.9453 166.498 32.3965 164.131 32.3965C159.17 32.3965 156.798 28.3932 156.798 23.7943C156.798 19.1955 159.17 15.1972 164.131 15.1972C166.563 15.1972 168.93 16.4282 169.781 18.7551H169.847V9.43237H171.836V31.9211ZM164.131 30.7251C168.361 30.7251 169.847 27.1671 169.847 23.7943C169.847 20.4265 168.361 16.8636 164.131 16.8636C160.338 16.8636 158.792 20.4265 158.792 23.7943C158.792 27.1671 160.338 30.7251 164.131 30.7251ZM189.397 30.6C189.367 35.449 187.504 38.4115 182.165 38.4115C178.912 38.4115 175.689 36.9603 175.407 33.4974H177.396C177.839 35.8894 179.955 36.7401 182.165 36.7401C185.832 36.7401 187.408 34.5683 187.408 30.6V28.3932H187.343C186.431 30.3798 184.502 31.7309 182.165 31.7309C176.953 31.7309 174.802 28.0178 174.802 23.384C174.802 18.9103 177.457 15.1972 182.165 15.1972C184.532 15.1972 186.557 16.6784 187.343 18.4699H187.408V15.6676H189.397V30.6ZM187.408 23.6092C187.408 20.4265 185.922 16.8686 182.165 16.8686C178.373 16.8686 176.797 20.2364 176.797 23.6092C176.797 26.8819 178.499 30.0645 182.165 30.0645C185.61 30.0645 187.408 26.9169 187.408 23.6092ZM194.358 24.3298C194.388 27.2322 195.904 30.7251 199.727 30.7251C202.633 30.7251 204.214 29.0237 204.844 26.5666H206.833C205.982 30.2547 203.836 32.3965 199.727 32.3965C194.55 32.3965 192.369 28.4282 192.369 23.7943C192.369 19.5108 194.55 15.1972 199.727 15.1972C204.97 15.1972 207.055 19.766 206.899 24.3298H194.358ZM204.909 22.6634C204.813 19.6709 202.95 16.8686 199.727 16.8686C196.473 16.8686 194.675 19.7009 194.358 22.6634H204.909Z" fill="white"/>
</svg>
